<?xml version="1.0" encoding="UTF-8"?>
<svg id="Layer_2" data-name="Layer 2" xmlns="http://www.w3.org/2000/svg" viewBox="0 0 175.22 114.94">
  <defs>
    <style>
      .cls-1 {
        fill: #e53349;
      }

      .cls-2 {
        fill: #16324b;
      }
    </style>
  </defs>
  <g id="Layer_1-2" data-name="Layer 1">
    <g>
      <path class="cls-2" d="M174.33,88.48c-10.91,18.15-31.28,27.55-51,26.36s-37.73-13.34-46.99-31.99l-20.02-40.32-17.07,34.44,24.54.73,9.81,17.5-43.53.62-9.51,18.82-20.57-.1L56.3.58l37.95,75.98c5.72,11.46,16.57,19.26,29.28,19.3,12.61,1.4,24.07-2.8,32.17-12.35l.29-16.48-27.48-.87c-1.3-5.89-1.22-11.41-.47-17.48l47.15.15c-1.47,13,1.36,26.78-.86,39.64Z"/>
      <path class="cls-1" d="M117.11,20.78c-13.58,4.63-22.32,12.14-26.65,26.52-5.16-7.46-8.39-13.01-11.12-20.4C88.13,12.16,103.21,2.64,117.98.66c18.92-2.54,35.86,2.2,49.17,16.25l-13,13.28c-10.58-9.22-23.58-14-37.04-9.41Z"/>
    </g>
  </g>
</svg>