<?xml version="1.0" encoding="UTF-8"?>
<svg id="Layer_2" data-name="Layer 2" xmlns="http://www.w3.org/2000/svg" viewBox="0 0 272.52 52.85">
  <defs>
    <style>
      .cls-1 {
        fill: #212b4e;
      }

      .cls-2 {
        fill: #be252b;
      }
    </style>
  </defs>
  <g id="Layer_1-2" data-name="Layer 1">
    <g>
      <path class="cls-2" d="M272.52,30.05c0,8.95-7.26,16.21-16.22,16.21s-16.22-7.26-16.22-16.21,7.26-16.21,16.22-16.21,16.22,7.26,16.22,16.21ZM266.22,30.02c0-5.47-4.43-9.9-9.9-9.9s-9.9,4.43-9.9,9.9,4.43,9.9,9.9,9.9,9.9-4.43,9.9-9.9Z"/>
      <path class="cls-2" d="M230.34,45.44l-1.92-2.71-5.1-8.09-4.97-.03.02,10.62-6.45.02-.02-30.49,12.78-.04c2.75,0,5.33.65,7.69,1.99,2.95,1.93,4.47,5.29,4.13,8.74-.39,3.94-2.61,7.18-6.55,8.37l7.59,11.57-7.19.04ZM229.87,25.17c.27-2.67-1.49-4.66-4.12-4.69l-7.37-.1-.04,8.62,7.56-.07c2.19-.02,3.75-1.54,3.97-3.76Z"/>
      <path class="cls-1" d="M183.08,38.34l-3.1,7.02-6.97.06,7.41-16.89,1.17-2.65,1.42-3.19,2.15-4.88,1.41-3.08,6.36.03,11.2,25.84,2.15,4.69-7.11.06-2.04-4.78c-.31-.72-.69-1.33-.86-2.19l-13.19-.03ZM193.93,32.73l-1.85-4.67-2.33-5.46-4.4,10.08,8.58.05Z"/>
      <polygon class="cls-1" points="124.94 14.73 132.04 14.79 118.55 45.33 113.89 45.37 110.76 38.15 100.24 14.79 107.32 14.74 116.25 35.47 118.56 29.87 121.43 23.31 124.94 14.73"/>
      <path class="cls-1" d="M158.53,45.41l.05-12.37c-.48-.7-.06-1.39-.06-2.06l.02-10.59h-9.68s0-5.63,0-5.63h25.91s.04,5.63.04,5.63h-9.73s0,24.96,0,24.96l-6.55.07Z"/>
      <rect class="cls-1" x="125.11" y="26.83" width="30.7" height="6.53" transform="translate(110.3 170.54) rotate(-89.97)"/>
      <path class="cls-1" d="M49.04,1.81c.28.12.72.28,1.04.61l4.01,4.12,3.22,3.62-6.14,9.96-19.14,30.99c-.29.47-.5.72-.96.8l-11.87-19.61L0,.05l12.1-.05,19.2,31.67,11.84-19.87,5.89-9.99Z"/>
      <path class="cls-2" d="M57.31,10.15l-3.22-3.62-4.01-4.12c-.32-.33-.76-.48-1.04-.61-.08-1.03.87-1.81,1.89-1.8l22.06.1c2.84.01,5.6,1.05,8.04,2.28,5.17,2.6,8.32,7.64,8.52,13.37.63,10.48-7.52,17.89-17.33,18.81l13.61,18.24-13.38.03c-1.3-1.22-2.3-2.63-3.23-4.14l-4.77-6.41-8.27-11.22c-1.01-1.37-2.4-2.72-3.01-4.24-.52-1.29,1.38-1.78,2.29-1.78l14.86-.02c2.65,0,5.14-1.31,6.75-3.38,2.47-3.16,1.96-7.82-1.09-10.39-1.74-1.46-3.99-1.92-6.22-1.88-1.59.03-3.05-.09-4.66-.07l-6.37.08c-.35.06-.81.94-1.44.76Z"/>
    </g>
  </g>
</svg>